<svg width="33" height="33" viewBox="0 0 33 33" fill="none" xmlns="http://www.w3.org/2000/svg">
<path d="M26.3333 30.5H2.50001V6.66667H16.8217L18.9883 4.5H2.50001C1.92537 4.5 1.37427 4.72827 0.967945 5.1346C0.561617 5.54093 0.333344 6.09203 0.333344 6.66667V30.5C0.333344 31.0746 0.561617 31.6257 0.967945 32.0321C1.37427 32.4384 1.92537 32.6667 2.50001 32.6667H26.3333C26.908 32.6667 27.4591 32.4384 27.8654 32.0321C28.2717 31.6257 28.5 31.0746 28.5 30.5V14.25L26.3333 16.4167V30.5Z" fill="black"/>
<path d="M32.3242 4.32646L28.6733 0.675631C28.5113 0.513164 28.3188 0.384262 28.1069 0.29631C27.895 0.208358 27.6678 0.163086 27.4383 0.163086C27.2089 0.163086 26.9817 0.208358 26.7698 0.29631C26.5578 0.384262 26.3653 0.513164 26.2033 0.675631L11.3508 15.6148L10.1483 20.8256C10.0971 21.0782 10.1025 21.339 10.1641 21.5893C10.2257 21.8395 10.342 22.073 10.5047 22.273C10.6673 22.4729 10.8722 22.6343 11.1047 22.7456C11.3372 22.8568 11.5914 22.9152 11.8492 22.9165C11.9824 22.9311 12.1168 22.9311 12.25 22.9165L17.5042 21.7573L32.3242 6.79646C32.4866 6.63444 32.6155 6.44195 32.7035 6.23003C32.7914 6.01811 32.8367 5.79091 32.8367 5.56146C32.8367 5.33201 32.7914 5.10482 32.7035 4.8929C32.6155 4.68097 32.4866 4.48849 32.3242 4.32646V4.32646ZM16.3775 19.7531L12.4125 20.6306L13.3333 16.6981L24.5133 5.4423L27.5683 8.4973L16.3775 19.7531ZM28.7925 7.27313L25.7375 4.21813L27.4167 2.50646L30.4933 5.58313L28.7925 7.27313Z" fill="black"/>
</svg>
